<?xml version="1.0" encoding="utf-8"?>
<svg xmlns="http://www.w3.org/2000/svg" xmlns:xlink="http://www.w3.org/1999/xlink" width="600" height="400" viewBox="0 0 2400 1600">
<defs>
  <clipPath id="clip810">
    <rect x="0" y="0" width="2400" height="1600"/>
  </clipPath>
</defs>
<path clip-path="url(#clip810)" d="
M0 1600 L2400 1600 L2400 0 L0 0  Z
  " fill="#ffffff" fill-rule="evenodd" fill-opacity="1"/>
<defs>
  <clipPath id="clip811">
    <rect x="480" y="0" width="1681" height="1600"/>
  </clipPath>
</defs>
<path clip-path="url(#clip810)" d="
M200.028 1423.18 L2352.76 1423.18 L2352.76 123.472 L200.028 123.472  Z
  " fill="#ffffff" fill-rule="evenodd" fill-opacity="1"/>
<defs>
  <clipPath id="clip812">
    <rect x="200" y="123" width="2154" height="1301"/>
  </clipPath>
</defs>
<polyline clip-path="url(#clip812)" style="stroke:#000000; stroke-width:2; stroke-opacity:0.1; fill:none" points="
  580.663,1423.18 580.663,123.472 
  "/>
<polyline clip-path="url(#clip812)" style="stroke:#000000; stroke-width:2; stroke-opacity:0.1; fill:none" points="
  1034.79,1423.18 1034.79,123.472 
  "/>
<polyline clip-path="url(#clip812)" style="stroke:#000000; stroke-width:2; stroke-opacity:0.1; fill:none" points="
  1488.93,1423.18 1488.93,123.472 
  "/>
<polyline clip-path="url(#clip812)" style="stroke:#000000; stroke-width:2; stroke-opacity:0.1; fill:none" points="
  1943.06,1423.18 1943.06,123.472 
  "/>
<polyline clip-path="url(#clip812)" style="stroke:#000000; stroke-width:2; stroke-opacity:0.1; fill:none" points="
  200.028,1392.97 2352.76,1392.97 
  "/>
<polyline clip-path="url(#clip812)" style="stroke:#000000; stroke-width:2; stroke-opacity:0.1; fill:none" points="
  200.028,1025.18 2352.76,1025.18 
  "/>
<polyline clip-path="url(#clip812)" style="stroke:#000000; stroke-width:2; stroke-opacity:0.1; fill:none" points="
  200.028,657.389 2352.76,657.389 
  "/>
<polyline clip-path="url(#clip812)" style="stroke:#000000; stroke-width:2; stroke-opacity:0.1; fill:none" points="
  200.028,289.601 2352.76,289.601 
  "/>
<polyline clip-path="url(#clip810)" style="stroke:#000000; stroke-width:4; stroke-opacity:1; fill:none" points="
  200.028,1423.18 2352.76,1423.18 
  "/>
<polyline clip-path="url(#clip810)" style="stroke:#000000; stroke-width:4; stroke-opacity:1; fill:none" points="
  200.028,1423.18 200.028,123.472 
  "/>
<polyline clip-path="url(#clip810)" style="stroke:#000000; stroke-width:4; stroke-opacity:1; fill:none" points="
  580.663,1423.18 580.663,1407.58 
  "/>
<polyline clip-path="url(#clip810)" style="stroke:#000000; stroke-width:4; stroke-opacity:1; fill:none" points="
  1034.79,1423.18 1034.79,1407.58 
  "/>
<polyline clip-path="url(#clip810)" style="stroke:#000000; stroke-width:4; stroke-opacity:1; fill:none" points="
  1488.93,1423.18 1488.93,1407.58 
  "/>
<polyline clip-path="url(#clip810)" style="stroke:#000000; stroke-width:4; stroke-opacity:1; fill:none" points="
  1943.06,1423.18 1943.06,1407.58 
  "/>
<polyline clip-path="url(#clip810)" style="stroke:#000000; stroke-width:4; stroke-opacity:1; fill:none" points="
  200.028,1392.97 225.861,1392.97 
  "/>
<polyline clip-path="url(#clip810)" style="stroke:#000000; stroke-width:4; stroke-opacity:1; fill:none" points="
  200.028,1025.18 225.861,1025.18 
  "/>
<polyline clip-path="url(#clip810)" style="stroke:#000000; stroke-width:4; stroke-opacity:1; fill:none" points="
  200.028,657.389 225.861,657.389 
  "/>
<polyline clip-path="url(#clip810)" style="stroke:#000000; stroke-width:4; stroke-opacity:1; fill:none" points="
  200.028,289.601 225.861,289.601 
  "/>
<path clip-path="url(#clip810)" d="M 0 0 M531.821 1472.72 L539.46 1472.72 L539.46 1446.35 L531.149 1448.02 L531.149 1443.76 L539.413 1442.09 L544.089 1442.09 L544.089 1472.72 L551.728 1472.72 L551.728 1476.65 L531.821 1476.65 L531.821 1472.72 Z" fill="#000000" fill-rule="evenodd" fill-opacity="1" /><path clip-path="url(#clip810)" d="M 0 0 M560.825 1472.72 L577.145 1472.72 L577.145 1476.65 L555.2 1476.65 L555.2 1472.72 Q557.862 1469.96 562.446 1465.33 Q567.052 1460.68 568.233 1459.34 Q570.478 1456.81 571.358 1455.08 Q572.26 1453.32 572.26 1451.63 Q572.26 1448.87 570.316 1447.14 Q568.395 1445.4 565.293 1445.4 Q563.094 1445.4 560.64 1446.17 Q558.209 1446.93 555.432 1448.48 L555.432 1443.76 Q558.256 1442.62 560.709 1442.05 Q563.163 1441.47 565.2 1441.47 Q570.571 1441.47 573.765 1444.15 Q576.959 1446.84 576.959 1451.33 Q576.959 1453.46 576.149 1455.38 Q575.362 1457.28 573.256 1459.87 Q572.677 1460.54 569.575 1463.76 Q566.473 1466.95 560.825 1472.72 Z" fill="#000000" fill-rule="evenodd" fill-opacity="1" /><path clip-path="url(#clip810)" d="M 0 0 M582.26 1442.09 L600.617 1442.09 L600.617 1446.03 L586.543 1446.03 L586.543 1454.5 Q587.561 1454.15 588.58 1453.99 Q589.598 1453.8 590.617 1453.8 Q596.404 1453.8 599.783 1456.98 Q603.163 1460.15 603.163 1465.56 Q603.163 1471.14 599.691 1474.24 Q596.219 1477.32 589.899 1477.32 Q587.723 1477.32 585.455 1476.95 Q583.209 1476.58 580.802 1475.84 L580.802 1471.14 Q582.885 1472.28 585.107 1472.83 Q587.33 1473.39 589.807 1473.39 Q593.811 1473.39 596.149 1471.28 Q598.487 1469.18 598.487 1465.56 Q598.487 1461.95 596.149 1459.85 Q593.811 1457.74 589.807 1457.74 Q587.932 1457.74 586.057 1458.16 Q584.205 1458.57 582.26 1459.45 L582.26 1442.09 Z" fill="#000000" fill-rule="evenodd" fill-opacity="1" /><path clip-path="url(#clip810)" d="M 0 0 M618.232 1445.17 Q614.621 1445.17 612.793 1448.74 Q610.987 1452.28 610.987 1459.41 Q610.987 1466.51 612.793 1470.08 Q614.621 1473.62 618.232 1473.62 Q621.867 1473.62 623.672 1470.08 Q625.501 1466.51 625.501 1459.41 Q625.501 1452.28 623.672 1448.74 Q621.867 1445.17 618.232 1445.17 M618.232 1441.47 Q624.042 1441.47 627.098 1446.07 Q630.177 1450.66 630.177 1459.41 Q630.177 1468.13 627.098 1472.74 Q624.042 1477.32 618.232 1477.32 Q612.422 1477.32 609.343 1472.74 Q606.288 1468.13 606.288 1459.41 Q606.288 1450.66 609.343 1446.07 Q612.422 1441.47 618.232 1441.47 Z" fill="#000000" fill-rule="evenodd" fill-opacity="1" /><path clip-path="url(#clip810)" d="M 0 0 M985.153 1472.72 L992.792 1472.72 L992.792 1446.35 L984.482 1448.02 L984.482 1443.76 L992.746 1442.09 L997.422 1442.09 L997.422 1472.72 L1005.06 1472.72 L1005.06 1476.65 L985.153 1476.65 L985.153 1472.72 Z" fill="#000000" fill-rule="evenodd" fill-opacity="1" /><path clip-path="url(#clip810)" d="M 0 0 M1010.18 1442.09 L1028.53 1442.09 L1028.53 1446.03 L1014.46 1446.03 L1014.46 1454.5 Q1015.48 1454.15 1016.5 1453.99 Q1017.51 1453.8 1018.53 1453.8 Q1024.32 1453.8 1027.7 1456.98 Q1031.08 1460.15 1031.08 1465.56 Q1031.08 1471.14 1027.61 1474.24 Q1024.13 1477.32 1017.82 1477.32 Q1015.64 1477.32 1013.37 1476.95 Q1011.13 1476.58 1008.72 1475.84 L1008.72 1471.14 Q1010.8 1472.28 1013.02 1472.83 Q1015.25 1473.39 1017.72 1473.39 Q1021.73 1473.39 1024.07 1471.28 Q1026.4 1469.18 1026.4 1465.56 Q1026.4 1461.95 1024.07 1459.85 Q1021.73 1457.74 1017.72 1457.74 Q1015.85 1457.74 1013.97 1458.16 Q1012.12 1458.57 1010.18 1459.45 L1010.18 1442.09 Z" fill="#000000" fill-rule="evenodd" fill-opacity="1" /><path clip-path="url(#clip810)" d="M 0 0 M1046.15 1445.17 Q1042.54 1445.17 1040.71 1448.74 Q1038.9 1452.28 1038.9 1459.41 Q1038.9 1466.51 1040.71 1470.08 Q1042.54 1473.62 1046.15 1473.62 Q1049.78 1473.62 1051.59 1470.08 Q1053.42 1466.51 1053.42 1459.41 Q1053.42 1452.28 1051.59 1448.74 Q1049.78 1445.17 1046.15 1445.17 M1046.15 1441.47 Q1051.96 1441.47 1055.01 1446.07 Q1058.09 1450.66 1058.09 1459.41 Q1058.09 1468.13 1055.01 1472.74 Q1051.96 1477.32 1046.15 1477.32 Q1040.34 1477.32 1037.26 1472.74 Q1034.2 1468.13 1034.2 1459.41 Q1034.2 1450.66 1037.26 1446.07 Q1040.34 1441.47 1046.15 1441.47 Z" fill="#000000" fill-rule="evenodd" fill-opacity="1" /><path clip-path="url(#clip810)" d="M 0 0 M1073.16 1445.17 Q1069.55 1445.17 1067.72 1448.74 Q1065.92 1452.28 1065.92 1459.41 Q1065.92 1466.51 1067.72 1470.08 Q1069.55 1473.62 1073.16 1473.62 Q1076.8 1473.62 1078.6 1470.08 Q1080.43 1466.51 1080.43 1459.41 Q1080.43 1452.28 1078.6 1448.74 Q1076.8 1445.17 1073.16 1445.17 M1073.16 1441.47 Q1078.97 1441.47 1082.03 1446.07 Q1085.11 1450.66 1085.11 1459.41 Q1085.11 1468.13 1082.03 1472.74 Q1078.97 1477.32 1073.16 1477.32 Q1067.35 1477.32 1064.27 1472.74 Q1061.22 1468.13 1061.22 1459.41 Q1061.22 1450.66 1064.27 1446.07 Q1067.35 1441.47 1073.16 1441.47 Z" fill="#000000" fill-rule="evenodd" fill-opacity="1" /><path clip-path="url(#clip810)" d="M 0 0 M1439.74 1472.72 L1447.37 1472.72 L1447.37 1446.35 L1439.06 1448.02 L1439.06 1443.76 L1447.33 1442.09 L1452 1442.09 L1452 1472.72 L1459.64 1472.72 L1459.64 1476.65 L1439.74 1476.65 L1439.74 1472.72 Z" fill="#000000" fill-rule="evenodd" fill-opacity="1" /><path clip-path="url(#clip810)" d="M 0 0 M1463.53 1442.09 L1485.75 1442.09 L1485.75 1444.08 L1473.21 1476.65 L1468.32 1476.65 L1480.13 1446.03 L1463.53 1446.03 L1463.53 1442.09 Z" fill="#000000" fill-rule="evenodd" fill-opacity="1" /><path clip-path="url(#clip810)" d="M 0 0 M1490.87 1442.09 L1509.23 1442.09 L1509.23 1446.03 L1495.15 1446.03 L1495.15 1454.5 Q1496.17 1454.15 1497.19 1453.99 Q1498.21 1453.8 1499.23 1453.8 Q1505.01 1453.8 1508.39 1456.98 Q1511.77 1460.15 1511.77 1465.56 Q1511.77 1471.14 1508.3 1474.24 Q1504.83 1477.32 1498.51 1477.32 Q1496.33 1477.32 1494.06 1476.95 Q1491.82 1476.58 1489.41 1475.84 L1489.41 1471.14 Q1491.5 1472.28 1493.72 1472.83 Q1495.94 1473.39 1498.42 1473.39 Q1502.42 1473.39 1504.76 1471.28 Q1507.1 1469.18 1507.1 1465.56 Q1507.1 1461.95 1504.76 1459.85 Q1502.42 1457.74 1498.42 1457.74 Q1496.54 1457.74 1494.67 1458.16 Q1492.81 1458.57 1490.87 1459.45 L1490.87 1442.09 Z" fill="#000000" fill-rule="evenodd" fill-opacity="1" /><path clip-path="url(#clip810)" d="M 0 0 M1526.84 1445.17 Q1523.23 1445.17 1521.4 1448.74 Q1519.6 1452.28 1519.6 1459.41 Q1519.6 1466.51 1521.4 1470.08 Q1523.23 1473.62 1526.84 1473.62 Q1530.48 1473.62 1532.28 1470.08 Q1534.11 1466.51 1534.11 1459.41 Q1534.11 1452.28 1532.28 1448.74 Q1530.48 1445.17 1526.84 1445.17 M1526.84 1441.47 Q1532.65 1441.47 1535.71 1446.07 Q1538.79 1450.66 1538.79 1459.41 Q1538.79 1468.13 1535.71 1472.74 Q1532.65 1477.32 1526.84 1477.32 Q1521.03 1477.32 1517.95 1472.74 Q1514.9 1468.13 1514.9 1459.41 Q1514.9 1450.66 1517.95 1446.07 Q1521.03 1441.47 1526.84 1441.47 Z" fill="#000000" fill-rule="evenodd" fill-opacity="1" /><path clip-path="url(#clip810)" d="M 0 0 M1897.19 1472.72 L1913.51 1472.72 L1913.51 1476.65 L1891.56 1476.65 L1891.56 1472.72 Q1894.23 1469.96 1898.81 1465.33 Q1903.42 1460.68 1904.6 1459.34 Q1906.84 1456.81 1907.72 1455.08 Q1908.62 1453.32 1908.62 1451.63 Q1908.62 1448.87 1906.68 1447.14 Q1904.76 1445.4 1901.66 1445.4 Q1899.46 1445.4 1897 1446.17 Q1894.57 1446.93 1891.8 1448.48 L1891.8 1443.76 Q1894.62 1442.62 1897.07 1442.05 Q1899.53 1441.47 1901.56 1441.47 Q1906.93 1441.47 1910.13 1444.15 Q1913.32 1446.84 1913.32 1451.33 Q1913.32 1453.46 1912.51 1455.38 Q1911.73 1457.28 1909.62 1459.87 Q1909.04 1460.54 1905.94 1463.76 Q1902.84 1466.95 1897.19 1472.72 Z" fill="#000000" fill-rule="evenodd" fill-opacity="1" /><path clip-path="url(#clip810)" d="M 0 0 M1928.58 1445.17 Q1924.97 1445.17 1923.14 1448.74 Q1921.33 1452.28 1921.33 1459.41 Q1921.33 1466.51 1923.14 1470.08 Q1924.97 1473.62 1928.58 1473.62 Q1932.21 1473.62 1934.02 1470.08 Q1935.85 1466.51 1935.85 1459.41 Q1935.85 1452.28 1934.02 1448.74 Q1932.21 1445.17 1928.58 1445.17 M1928.58 1441.47 Q1934.39 1441.47 1937.44 1446.07 Q1940.52 1450.66 1940.52 1459.41 Q1940.52 1468.13 1937.44 1472.74 Q1934.39 1477.32 1928.58 1477.32 Q1922.77 1477.32 1919.69 1472.74 Q1916.63 1468.13 1916.63 1459.41 Q1916.63 1450.66 1919.69 1446.07 Q1922.77 1441.47 1928.58 1441.47 Z" fill="#000000" fill-rule="evenodd" fill-opacity="1" /><path clip-path="url(#clip810)" d="M 0 0 M1955.59 1445.17 Q1951.98 1445.17 1950.15 1448.74 Q1948.35 1452.28 1948.35 1459.41 Q1948.35 1466.51 1950.15 1470.08 Q1951.98 1473.62 1955.59 1473.62 Q1959.23 1473.62 1961.03 1470.08 Q1962.86 1466.51 1962.86 1459.41 Q1962.86 1452.28 1961.03 1448.74 Q1959.23 1445.17 1955.59 1445.17 M1955.59 1441.47 Q1961.4 1441.47 1964.46 1446.07 Q1967.54 1450.66 1967.54 1459.41 Q1967.54 1468.13 1964.46 1472.74 Q1961.4 1477.32 1955.59 1477.32 Q1949.78 1477.32 1946.7 1472.74 Q1943.65 1468.13 1943.65 1459.41 Q1943.65 1450.66 1946.7 1446.07 Q1949.78 1441.47 1955.59 1441.47 Z" fill="#000000" fill-rule="evenodd" fill-opacity="1" /><path clip-path="url(#clip810)" d="M 0 0 M1982.61 1445.17 Q1978.99 1445.17 1977.17 1448.74 Q1975.36 1452.28 1975.36 1459.41 Q1975.36 1466.51 1977.17 1470.08 Q1978.99 1473.62 1982.61 1473.62 Q1986.24 1473.62 1988.05 1470.08 Q1989.87 1466.51 1989.87 1459.41 Q1989.87 1452.28 1988.05 1448.74 Q1986.24 1445.17 1982.61 1445.17 M1982.61 1441.47 Q1988.42 1441.47 1991.47 1446.07 Q1994.55 1450.66 1994.55 1459.41 Q1994.55 1468.13 1991.47 1472.74 Q1988.42 1477.32 1982.61 1477.32 Q1976.8 1477.32 1973.72 1472.74 Q1970.66 1468.13 1970.66 1459.41 Q1970.66 1450.66 1973.72 1446.07 Q1976.8 1441.47 1982.61 1441.47 Z" fill="#000000" fill-rule="evenodd" fill-opacity="1" /><path clip-path="url(#clip810)" d="M 0 0 M164.084 1378.77 Q160.473 1378.77 158.644 1382.33 Q156.839 1385.87 156.839 1393 Q156.839 1400.11 158.644 1403.67 Q160.473 1407.21 164.084 1407.21 Q167.718 1407.21 169.524 1403.67 Q171.353 1400.11 171.353 1393 Q171.353 1385.87 169.524 1382.33 Q167.718 1378.77 164.084 1378.77 M164.084 1375.06 Q169.894 1375.06 172.95 1379.67 Q176.028 1384.25 176.028 1393 Q176.028 1401.73 172.95 1406.33 Q169.894 1410.92 164.084 1410.92 Q158.274 1410.92 155.195 1406.33 Q152.14 1401.73 152.14 1393 Q152.14 1384.25 155.195 1379.67 Q158.274 1375.06 164.084 1375.06 Z" fill="#000000" fill-rule="evenodd" fill-opacity="1" /><path clip-path="url(#clip810)" d="M 0 0 M129.107 1038.52 L136.746 1038.52 L136.746 1012.16 L128.436 1013.82 L128.436 1009.56 L136.7 1007.9 L141.376 1007.9 L141.376 1038.52 L149.015 1038.52 L149.015 1042.46 L129.107 1042.46 L129.107 1038.52 Z" fill="#000000" fill-rule="evenodd" fill-opacity="1" /><path clip-path="url(#clip810)" d="M 0 0 M164.084 1010.98 Q160.473 1010.98 158.644 1014.54 Q156.839 1018.08 156.839 1025.21 Q156.839 1032.32 158.644 1035.88 Q160.473 1039.43 164.084 1039.43 Q167.718 1039.43 169.524 1035.88 Q171.353 1032.32 171.353 1025.21 Q171.353 1018.08 169.524 1014.54 Q167.718 1010.98 164.084 1010.98 M164.084 1007.27 Q169.894 1007.27 172.95 1011.88 Q176.028 1016.46 176.028 1025.21 Q176.028 1033.94 172.95 1038.55 Q169.894 1043.13 164.084 1043.13 Q158.274 1043.13 155.195 1038.55 Q152.14 1033.94 152.14 1025.21 Q152.14 1016.46 155.195 1011.88 Q158.274 1007.27 164.084 1007.27 Z" fill="#000000" fill-rule="evenodd" fill-opacity="1" /><path clip-path="url(#clip810)" d="M 0 0 M132.695 670.734 L149.015 670.734 L149.015 674.669 L127.07 674.669 L127.07 670.734 Q129.732 667.98 134.316 663.35 Q138.922 658.697 140.103 657.355 Q142.348 654.832 143.228 653.096 Q144.13 651.336 144.13 649.646 Q144.13 646.892 142.186 645.156 Q140.265 643.42 137.163 643.42 Q134.964 643.42 132.51 644.184 Q130.08 644.947 127.302 646.498 L127.302 641.776 Q130.126 640.642 132.58 640.063 Q135.033 639.484 137.07 639.484 Q142.441 639.484 145.635 642.17 Q148.829 644.855 148.829 649.346 Q148.829 651.475 148.019 653.396 Q147.232 655.295 145.126 657.887 Q144.547 658.558 141.445 661.776 Q138.343 664.97 132.695 670.734 Z" fill="#000000" fill-rule="evenodd" fill-opacity="1" /><path clip-path="url(#clip810)" d="M 0 0 M164.084 643.188 Q160.473 643.188 158.644 646.753 Q156.839 650.295 156.839 657.424 Q156.839 664.531 158.644 668.095 Q160.473 671.637 164.084 671.637 Q167.718 671.637 169.524 668.095 Q171.353 664.531 171.353 657.424 Q171.353 650.295 169.524 646.753 Q167.718 643.188 164.084 643.188 M164.084 639.484 Q169.894 639.484 172.95 644.091 Q176.028 648.674 176.028 657.424 Q176.028 666.151 172.95 670.757 Q169.894 675.341 164.084 675.341 Q158.274 675.341 155.195 670.757 Q152.14 666.151 152.14 657.424 Q152.14 648.674 155.195 644.091 Q158.274 639.484 164.084 639.484 Z" fill="#000000" fill-rule="evenodd" fill-opacity="1" /><path clip-path="url(#clip810)" d="M 0 0 M141.885 288.247 Q145.242 288.964 147.117 291.233 Q149.015 293.501 149.015 296.835 Q149.015 301.95 145.496 304.751 Q141.978 307.552 135.496 307.552 Q133.32 307.552 131.006 307.112 Q128.714 306.696 126.26 305.839 L126.26 301.325 Q128.205 302.46 130.519 303.038 Q132.834 303.617 135.357 303.617 Q139.755 303.617 142.047 301.881 Q144.362 300.145 144.362 296.835 Q144.362 293.779 142.209 292.066 Q140.08 290.33 136.26 290.33 L132.232 290.33 L132.232 286.488 L136.445 286.488 Q139.894 286.488 141.723 285.122 Q143.552 283.733 143.552 281.14 Q143.552 278.478 141.654 277.066 Q139.779 275.631 136.26 275.631 Q134.339 275.631 132.14 276.048 Q129.941 276.464 127.302 277.344 L127.302 273.177 Q129.964 272.437 132.279 272.066 Q134.617 271.696 136.677 271.696 Q142.001 271.696 145.103 274.127 Q148.204 276.534 148.204 280.654 Q148.204 283.525 146.561 285.515 Q144.917 287.483 141.885 288.247 Z" fill="#000000" fill-rule="evenodd" fill-opacity="1" /><path clip-path="url(#clip810)" d="M 0 0 M164.084 275.4 Q160.473 275.4 158.644 278.964 Q156.839 282.506 156.839 289.636 Q156.839 296.742 158.644 300.307 Q160.473 303.849 164.084 303.849 Q167.718 303.849 169.524 300.307 Q171.353 296.742 171.353 289.636 Q171.353 282.506 169.524 278.964 Q167.718 275.4 164.084 275.4 M164.084 271.696 Q169.894 271.696 172.95 276.302 Q176.028 280.886 176.028 289.636 Q176.028 298.362 172.95 302.969 Q169.894 307.552 164.084 307.552 Q158.274 307.552 155.195 302.969 Q152.14 298.362 152.14 289.636 Q152.14 280.886 155.195 276.302 Q158.274 271.696 164.084 271.696 Z" fill="#000000" fill-rule="evenodd" fill-opacity="1" /><path clip-path="url(#clip810)" d="M 0 0 M688.748 18.8205 L688.748 41.5461 L699.037 41.5461 Q704.749 41.5461 707.868 38.5889 Q710.987 35.6318 710.987 30.163 Q710.987 24.7348 707.868 21.7777 Q704.749 18.8205 699.037 18.8205 L688.748 18.8205 M680.565 12.096 L699.037 12.096 Q709.205 12.096 714.39 16.714 Q719.616 21.2916 719.616 30.163 Q719.616 39.1155 714.39 43.6931 Q709.205 48.2706 699.037 48.2706 L688.748 48.2706 L688.748 72.576 L680.565 72.576 L680.565 12.096 Z" fill="#000000" fill-rule="evenodd" fill-opacity="1" /><path clip-path="url(#clip810)" d="M 0 0 M744.326 49.7694 Q735.293 49.7694 731.809 51.8354 Q728.325 53.9013 728.325 58.8839 Q728.325 62.8538 730.918 65.2034 Q733.551 67.5124 738.047 67.5124 Q744.245 67.5124 747.972 63.1374 Q751.739 58.7219 751.739 51.4303 L751.739 49.7694 L744.326 49.7694 M759.193 46.6907 L759.193 72.576 L751.739 72.576 L751.739 65.6895 Q749.187 69.8214 745.379 71.8063 Q741.572 73.7508 736.062 73.7508 Q729.095 73.7508 724.963 69.8619 Q720.871 65.9325 720.871 59.3701 Q720.871 51.7138 725.976 47.825 Q731.12 43.9361 741.288 43.9361 L751.739 43.9361 L751.739 43.2069 Q751.739 38.0623 748.337 35.2672 Q744.974 32.4315 738.857 32.4315 Q734.969 32.4315 731.282 33.3632 Q727.596 34.295 724.193 36.1584 L724.193 29.2718 Q728.285 27.692 732.133 26.9223 Q735.981 26.1121 739.627 26.1121 Q749.471 26.1121 754.332 31.2163 Q759.193 36.3204 759.193 46.6907 Z" fill="#000000" fill-rule="evenodd" fill-opacity="1" /><path clip-path="url(#clip810)" d="M 0 0 M793.302 34.1734 Q792.046 33.4443 790.547 33.1202 Q789.089 32.7556 787.306 32.7556 Q780.987 32.7556 777.584 36.8875 Q774.222 40.9789 774.222 48.6757 L774.222 72.576 L766.728 72.576 L766.728 27.2059 L774.222 27.2059 L774.222 34.2544 Q776.571 30.1225 780.339 28.1376 Q784.106 26.1121 789.494 26.1121 Q790.263 26.1121 791.195 26.2337 Q792.127 26.3147 793.261 26.5172 L793.302 34.1734 Z" fill="#000000" fill-rule="evenodd" fill-opacity="1" /><path clip-path="url(#clip810)" d="M 0 0 M838.105 48.0275 L838.105 51.6733 L803.834 51.6733 Q804.32 59.3701 808.452 63.421 Q812.624 67.4314 820.038 67.4314 Q824.332 67.4314 828.342 66.3781 Q832.393 65.3249 836.363 63.2184 L836.363 70.267 Q832.352 71.9684 828.139 72.8596 Q823.926 73.7508 819.592 73.7508 Q808.736 73.7508 802.376 67.4314 Q796.056 61.1119 796.056 50.3365 Q796.056 39.1965 802.052 32.6746 Q808.087 26.1121 818.296 26.1121 Q827.451 26.1121 832.757 32.0264 Q838.105 37.9003 838.105 48.0275 M830.651 45.84 Q830.57 39.7232 827.208 36.0774 Q823.886 32.4315 818.377 32.4315 Q812.138 32.4315 808.371 35.9558 Q804.644 39.4801 804.077 45.8805 L830.651 45.84 Z" fill="#000000" fill-rule="evenodd" fill-opacity="1" /><path clip-path="url(#clip810)" d="M 0 0 M853.295 14.324 L853.295 27.2059 L868.648 27.2059 L868.648 32.9987 L853.295 32.9987 L853.295 57.6282 Q853.295 63.1779 854.794 64.7578 Q856.334 66.3376 860.992 66.3376 L868.648 66.3376 L868.648 72.576 L860.992 72.576 Q852.364 72.576 849.083 69.3758 Q845.801 66.1351 845.801 57.6282 L845.801 32.9987 L840.333 32.9987 L840.333 27.2059 L845.801 27.2059 L845.801 14.324 L853.295 14.324 Z" fill="#000000" fill-rule="evenodd" fill-opacity="1" /><path clip-path="url(#clip810)" d="M 0 0 M894.048 32.4315 Q888.052 32.4315 884.568 37.1306 Q881.085 41.7891 881.085 49.9314 Q881.085 58.0738 884.528 62.7728 Q888.012 67.4314 894.048 67.4314 Q900.002 67.4314 903.486 62.7323 Q906.97 58.0333 906.97 49.9314 Q906.97 41.8701 903.486 37.1711 Q900.002 32.4315 894.048 32.4315 M894.048 26.1121 Q903.77 26.1121 909.319 32.4315 Q914.869 38.7509 914.869 49.9314 Q914.869 61.0714 909.319 67.4314 Q903.77 73.7508 894.048 73.7508 Q884.285 73.7508 878.735 67.4314 Q873.226 61.0714 873.226 49.9314 Q873.226 38.7509 878.735 32.4315 Q884.285 26.1121 894.048 26.1121 Z" fill="#000000" fill-rule="evenodd" fill-opacity="1" /><path clip-path="url(#clip810)" d="M 0 0 M994.672 16.7545 L994.672 25.383 Q990.54 21.5346 985.841 19.6307 Q981.183 17.7268 975.916 17.7268 Q965.546 17.7268 960.037 24.0867 Q954.528 30.4061 954.528 42.3968 Q954.528 54.3469 960.037 60.7069 Q965.546 67.0263 975.916 67.0263 Q981.183 67.0263 985.841 65.1223 Q990.54 63.2184 994.672 59.3701 L994.672 67.9175 Q990.378 70.8341 985.557 72.2924 Q980.777 73.7508 975.43 73.7508 Q961.698 73.7508 953.798 65.3654 Q945.899 56.9395 945.899 42.3968 Q945.899 27.8135 953.798 19.4281 Q961.698 11.0023 975.43 11.0023 Q980.858 11.0023 985.639 12.4606 Q990.459 13.8784 994.672 16.7545 Z" fill="#000000" fill-rule="evenodd" fill-opacity="1" /><path clip-path="url(#clip810)" d="M 0 0 M1001.72 54.671 L1001.72 27.2059 L1009.17 27.2059 L1009.17 54.3874 Q1009.17 60.8284 1011.69 64.0691 Q1014.2 67.2693 1019.22 67.2693 Q1025.26 67.2693 1028.74 63.421 Q1032.26 59.5726 1032.26 52.9291 L1032.26 27.2059 L1039.72 27.2059 L1039.72 72.576 L1032.26 72.576 L1032.26 65.6084 Q1029.55 69.7404 1025.95 71.7658 Q1022.38 73.7508 1017.64 73.7508 Q1009.82 73.7508 1005.77 68.8897 Q1001.72 64.0286 1001.72 54.671 M1020.48 26.1121 L1020.48 26.1121 Z" fill="#000000" fill-rule="evenodd" fill-opacity="1" /><path clip-path="url(#clip810)" d="M 0 0 M1073.83 34.1734 Q1072.57 33.4443 1071.07 33.1202 Q1069.61 32.7556 1067.83 32.7556 Q1061.51 32.7556 1058.11 36.8875 Q1054.75 40.9789 1054.75 48.6757 L1054.75 72.576 L1047.25 72.576 L1047.25 27.2059 L1054.75 27.2059 L1054.75 34.2544 Q1057.1 30.1225 1060.86 28.1376 Q1064.63 26.1121 1070.02 26.1121 Q1070.79 26.1121 1071.72 26.2337 Q1072.65 26.3147 1073.79 26.5172 L1073.83 34.1734 Z" fill="#000000" fill-rule="evenodd" fill-opacity="1" /><path clip-path="url(#clip810)" d="M 0 0 M1076.3 27.2059 L1084.2 27.2059 L1098.38 65.2844 L1112.55 27.2059 L1120.45 27.2059 L1103.44 72.576 L1093.31 72.576 L1076.3 27.2059 Z" fill="#000000" fill-rule="evenodd" fill-opacity="1" /><path clip-path="url(#clip810)" d="M 0 0 M1167.08 48.0275 L1167.08 51.6733 L1132.81 51.6733 Q1133.29 59.3701 1137.43 63.421 Q1141.6 67.4314 1149.01 67.4314 Q1153.31 67.4314 1157.32 66.3781 Q1161.37 65.3249 1165.34 63.2184 L1165.34 70.267 Q1161.33 71.9684 1157.11 72.8596 Q1152.9 73.7508 1148.57 73.7508 Q1137.71 73.7508 1131.35 67.4314 Q1125.03 61.1119 1125.03 50.3365 Q1125.03 39.1965 1131.03 32.6746 Q1137.06 26.1121 1147.27 26.1121 Q1156.42 26.1121 1161.73 32.0264 Q1167.08 37.9003 1167.08 48.0275 M1159.62 45.84 Q1159.54 39.7232 1156.18 36.0774 Q1152.86 32.4315 1147.35 32.4315 Q1141.11 32.4315 1137.34 35.9558 Q1133.62 39.4801 1133.05 45.8805 L1159.62 45.84 Z" fill="#000000" fill-rule="evenodd" fill-opacity="1" /><path clip-path="url(#clip810)" d="M 0 0 M1219.17 9.62495 Q1213.74 18.942 1211.11 28.0566 Q1208.48 37.1711 1208.48 46.5287 Q1208.48 55.8863 1211.11 65.0818 Q1213.79 74.2369 1219.17 83.5134 L1212.69 83.5134 Q1206.62 73.9938 1203.58 64.7983 Q1200.58 55.6027 1200.58 46.5287 Q1200.58 37.4952 1203.58 28.3401 Q1206.57 19.1851 1212.69 9.62495 L1219.17 9.62495 Z" fill="#000000" fill-rule="evenodd" fill-opacity="1" /><path clip-path="url(#clip810)" d="M 0 0 M1272.6 16.7545 L1272.6 25.383 Q1268.47 21.5346 1263.77 19.6307 Q1259.12 17.7268 1253.85 17.7268 Q1243.48 17.7268 1237.97 24.0867 Q1232.46 30.4061 1232.46 42.3968 Q1232.46 54.3469 1237.97 60.7069 Q1243.48 67.0263 1253.85 67.0263 Q1259.12 67.0263 1263.77 65.1223 Q1268.47 63.2184 1272.6 59.3701 L1272.6 67.9175 Q1268.31 70.8341 1263.49 72.2924 Q1258.71 73.7508 1253.36 73.7508 Q1239.63 73.7508 1231.73 65.3654 Q1223.83 56.9395 1223.83 42.3968 Q1223.83 27.8135 1231.73 19.4281 Q1239.63 11.0023 1253.36 11.0023 Q1258.79 11.0023 1263.57 12.4606 Q1268.39 13.8784 1272.6 16.7545 Z" fill="#000000" fill-rule="evenodd" fill-opacity="1" /><path clip-path="url(#clip810)" d="M 0 0 M1298 32.4315 Q1292.01 32.4315 1288.52 37.1306 Q1285.04 41.7891 1285.04 49.9314 Q1285.04 58.0738 1288.48 62.7728 Q1291.97 67.4314 1298 67.4314 Q1303.96 67.4314 1307.44 62.7323 Q1310.93 58.0333 1310.93 49.9314 Q1310.93 41.8701 1307.44 37.1711 Q1303.96 32.4315 1298 32.4315 M1298 26.1121 Q1307.73 26.1121 1313.28 32.4315 Q1318.83 38.7509 1318.83 49.9314 Q1318.83 61.0714 1313.28 67.4314 Q1307.73 73.7508 1298 73.7508 Q1288.24 73.7508 1282.69 67.4314 Q1277.18 61.0714 1277.18 49.9314 Q1277.18 38.7509 1282.69 32.4315 Q1288.24 26.1121 1298 26.1121 Z" fill="#000000" fill-rule="evenodd" fill-opacity="1" /><path clip-path="url(#clip810)" d="M 0 0 M1355.57 28.5427 L1355.57 35.5912 Q1352.41 33.9709 1349 33.1607 Q1345.6 32.3505 1341.96 32.3505 Q1336.41 32.3505 1333.61 34.0519 Q1330.86 35.7533 1330.86 39.156 Q1330.86 41.7486 1332.84 43.2475 Q1334.83 44.7058 1340.82 46.0426 L1343.37 46.6097 Q1351.31 48.3111 1354.64 51.4303 Q1358 54.509 1358 60.0587 Q1358 66.3781 1352.97 70.0644 Q1347.99 73.7508 1339.24 73.7508 Q1335.6 73.7508 1331.63 73.0216 Q1327.7 72.3329 1323.32 70.9151 L1323.32 63.2184 Q1327.45 65.3654 1331.46 66.4591 Q1335.47 67.5124 1339.4 67.5124 Q1344.67 67.5124 1347.51 65.73 Q1350.34 63.9071 1350.34 60.6258 Q1350.34 57.5877 1348.28 55.9673 Q1346.25 54.3469 1339.32 52.8481 L1336.73 52.2405 Q1329.8 50.7821 1326.72 47.7845 Q1323.65 44.7463 1323.65 39.4801 Q1323.65 33.0797 1328.18 29.5959 Q1332.72 26.1121 1341.06 26.1121 Q1345.2 26.1121 1348.84 26.7198 Q1352.49 27.3274 1355.57 28.5427 Z" fill="#000000" fill-rule="evenodd" fill-opacity="1" /><path clip-path="url(#clip810)" d="M 0 0 M1373.19 14.324 L1373.19 27.2059 L1388.54 27.2059 L1388.54 32.9987 L1373.19 32.9987 L1373.19 57.6282 Q1373.19 63.1779 1374.69 64.7578 Q1376.23 66.3376 1380.89 66.3376 L1388.54 66.3376 L1388.54 72.576 L1380.89 72.576 Q1372.26 72.576 1368.98 69.3758 Q1365.69 66.1351 1365.69 57.6282 L1365.69 32.9987 L1360.23 32.9987 L1360.23 27.2059 L1365.69 27.2059 L1365.69 14.324 L1373.19 14.324 Z" fill="#000000" fill-rule="evenodd" fill-opacity="1" /><path clip-path="url(#clip810)" d="M 0 0 M1417.38 27.2059 L1425.28 27.2059 L1439.46 65.2844 L1453.64 27.2059 L1461.54 27.2059 L1444.52 72.576 L1434.4 72.576 L1417.38 27.2059 Z" fill="#000000" fill-rule="evenodd" fill-opacity="1" /><path clip-path="url(#clip810)" d="M 0 0 M1498.28 28.5427 L1498.28 35.5912 Q1495.12 33.9709 1491.72 33.1607 Q1488.32 32.3505 1484.67 32.3505 Q1479.12 32.3505 1476.32 34.0519 Q1473.57 35.7533 1473.57 39.156 Q1473.57 41.7486 1475.55 43.2475 Q1477.54 44.7058 1483.54 46.0426 L1486.09 46.6097 Q1494.03 48.3111 1497.35 51.4303 Q1500.71 54.509 1500.71 60.0587 Q1500.71 66.3781 1495.69 70.0644 Q1490.71 73.7508 1481.96 73.7508 Q1478.31 73.7508 1474.34 73.0216 Q1470.41 72.3329 1466.04 70.9151 L1466.04 63.2184 Q1470.17 65.3654 1474.18 66.4591 Q1478.19 67.5124 1482.12 67.5124 Q1487.38 67.5124 1490.22 65.73 Q1493.05 63.9071 1493.05 60.6258 Q1493.05 57.5877 1490.99 55.9673 Q1488.96 54.3469 1482.04 52.8481 L1479.44 52.2405 Q1472.52 50.7821 1469.44 47.7845 Q1466.36 44.7463 1466.36 39.4801 Q1466.36 33.0797 1470.9 29.5959 Q1475.43 26.1121 1483.78 26.1121 Q1487.91 26.1121 1491.56 26.7198 Q1495.2 27.3274 1498.28 28.5427 Z" fill="#000000" fill-rule="evenodd" fill-opacity="1" /><path clip-path="url(#clip810)" d="M 0 0 M1543.41 18.8205 L1543.41 65.8515 L1553.29 65.8515 Q1565.81 65.8515 1571.6 60.1802 Q1577.44 54.509 1577.44 42.2752 Q1577.44 30.1225 1571.6 24.4918 Q1565.81 18.8205 1553.29 18.8205 L1543.41 18.8205 M1535.22 12.096 L1552.04 12.096 Q1569.62 12.096 1577.84 19.4281 Q1586.06 26.7198 1586.06 42.2752 Q1586.06 57.9117 1577.8 65.2439 Q1569.54 72.576 1552.04 72.576 L1535.22 72.576 L1535.22 12.096 Z" fill="#000000" fill-rule="evenodd" fill-opacity="1" /><path clip-path="url(#clip810)" d="M 0 0 M1593.88 27.2059 L1601.34 27.2059 L1601.34 72.576 L1593.88 72.576 L1593.88 27.2059 M1593.88 9.54393 L1601.34 9.54393 L1601.34 18.9825 L1593.88 18.9825 L1593.88 9.54393 Z" fill="#000000" fill-rule="evenodd" fill-opacity="1" /><path clip-path="url(#clip810)" d="M 0 0 M1638.08 28.5427 L1638.08 35.5912 Q1634.92 33.9709 1631.51 33.1607 Q1628.11 32.3505 1624.47 32.3505 Q1618.92 32.3505 1616.12 34.0519 Q1613.37 35.7533 1613.37 39.156 Q1613.37 41.7486 1615.35 43.2475 Q1617.34 44.7058 1623.33 46.0426 L1625.88 46.6097 Q1633.82 48.3111 1637.15 51.4303 Q1640.51 54.509 1640.51 60.0587 Q1640.51 66.3781 1635.48 70.0644 Q1630.5 73.7508 1621.75 73.7508 Q1618.11 73.7508 1614.14 73.0216 Q1610.21 72.3329 1605.83 70.9151 L1605.83 63.2184 Q1609.96 65.3654 1613.97 66.4591 Q1617.98 67.5124 1621.91 67.5124 Q1627.18 67.5124 1630.02 65.73 Q1632.85 63.9071 1632.85 60.6258 Q1632.85 57.5877 1630.79 55.9673 Q1628.76 54.3469 1621.83 52.8481 L1619.24 52.2405 Q1612.31 50.7821 1609.23 47.7845 Q1606.16 44.7463 1606.16 39.4801 Q1606.16 33.0797 1610.69 29.5959 Q1615.23 26.1121 1623.57 26.1121 Q1627.71 26.1121 1631.35 26.7198 Q1635 27.3274 1638.08 28.5427 Z" fill="#000000" fill-rule="evenodd" fill-opacity="1" /><path clip-path="url(#clip810)" d="M 0 0 M1655.7 14.324 L1655.7 27.2059 L1671.05 27.2059 L1671.05 32.9987 L1655.7 32.9987 L1655.7 57.6282 Q1655.7 63.1779 1657.2 64.7578 Q1658.74 66.3376 1663.4 66.3376 L1671.05 66.3376 L1671.05 72.576 L1663.4 72.576 Q1654.77 72.576 1651.49 69.3758 Q1648.2 66.1351 1648.2 57.6282 L1648.2 32.9987 L1642.74 32.9987 L1642.74 27.2059 L1648.2 27.2059 L1648.2 14.324 L1655.7 14.324 Z" fill="#000000" fill-rule="evenodd" fill-opacity="1" /><path clip-path="url(#clip810)" d="M 0 0 M1699.49 49.7694 Q1690.46 49.7694 1686.97 51.8354 Q1683.49 53.9013 1683.49 58.8839 Q1683.49 62.8538 1686.08 65.2034 Q1688.71 67.5124 1693.21 67.5124 Q1699.41 67.5124 1703.13 63.1374 Q1706.9 58.7219 1706.9 51.4303 L1706.9 49.7694 L1699.49 49.7694 M1714.36 46.6907 L1714.36 72.576 L1706.9 72.576 L1706.9 65.6895 Q1704.35 69.8214 1700.54 71.8063 Q1696.73 73.7508 1691.23 73.7508 Q1684.26 73.7508 1680.13 69.8619 Q1676.03 65.9325 1676.03 59.3701 Q1676.03 51.7138 1681.14 47.825 Q1686.28 43.9361 1696.45 43.9361 L1706.9 43.9361 L1706.9 43.2069 Q1706.9 38.0623 1703.5 35.2672 Q1700.14 32.4315 1694.02 32.4315 Q1690.13 32.4315 1686.44 33.3632 Q1682.76 34.295 1679.36 36.1584 L1679.36 29.2718 Q1683.45 27.692 1687.3 26.9223 Q1691.14 26.1121 1694.79 26.1121 Q1704.63 26.1121 1709.49 31.2163 Q1714.36 36.3204 1714.36 46.6907 Z" fill="#000000" fill-rule="evenodd" fill-opacity="1" /><path clip-path="url(#clip810)" d="M 0 0 M1759.89 45.1919 L1759.89 72.576 L1752.43 72.576 L1752.43 45.4349 Q1752.43 38.994 1749.92 35.7938 Q1747.41 32.5936 1742.39 32.5936 Q1736.35 32.5936 1732.87 36.4419 Q1729.38 40.2903 1729.38 46.9338 L1729.38 72.576 L1721.89 72.576 L1721.89 27.2059 L1729.38 27.2059 L1729.38 34.2544 Q1732.06 30.163 1735.66 28.1376 Q1739.31 26.1121 1744.05 26.1121 Q1751.87 26.1121 1755.88 30.9732 Q1759.89 35.7938 1759.89 45.1919 Z" fill="#000000" fill-rule="evenodd" fill-opacity="1" /><path clip-path="url(#clip810)" d="M 0 0 M1800.36 28.9478 L1800.36 35.9153 Q1797.2 34.1734 1794 33.3227 Q1790.84 32.4315 1787.6 32.4315 Q1780.34 32.4315 1776.33 37.0496 Q1772.32 41.6271 1772.32 49.9314 Q1772.32 58.2358 1776.33 62.8538 Q1780.34 67.4314 1787.6 67.4314 Q1790.84 67.4314 1794 66.5807 Q1797.2 65.6895 1800.36 63.9476 L1800.36 70.8341 Q1797.24 72.2924 1793.87 73.0216 Q1790.55 73.7508 1786.79 73.7508 Q1776.54 73.7508 1770.5 67.3098 Q1764.47 60.8689 1764.47 49.9314 Q1764.47 38.832 1770.54 32.472 Q1776.66 26.1121 1787.27 26.1121 Q1790.72 26.1121 1794 26.8413 Q1797.28 27.5299 1800.36 28.9478 Z" fill="#000000" fill-rule="evenodd" fill-opacity="1" /><path clip-path="url(#clip810)" d="M 0 0 M1846.98 48.0275 L1846.98 51.6733 L1812.71 51.6733 Q1813.2 59.3701 1817.33 63.421 Q1821.5 67.4314 1828.92 67.4314 Q1833.21 67.4314 1837.22 66.3781 Q1841.27 65.3249 1845.24 63.2184 L1845.24 70.267 Q1841.23 71.9684 1837.02 72.8596 Q1832.8 73.7508 1828.47 73.7508 Q1817.61 73.7508 1811.25 67.4314 Q1804.93 61.1119 1804.93 50.3365 Q1804.93 39.1965 1810.93 32.6746 Q1816.97 26.1121 1827.17 26.1121 Q1836.33 26.1121 1841.64 32.0264 Q1846.98 37.9003 1846.98 48.0275 M1839.53 45.84 Q1839.45 39.7232 1836.09 36.0774 Q1832.76 32.4315 1827.25 32.4315 Q1821.02 32.4315 1817.25 35.9558 Q1813.52 39.4801 1812.95 45.8805 L1839.53 45.84 Z" fill="#000000" fill-rule="evenodd" fill-opacity="1" /><path clip-path="url(#clip810)" d="M 0 0 M1853.63 9.62495 L1860.11 9.62495 Q1866.18 19.1851 1869.18 28.3401 Q1872.22 37.4952 1872.22 46.5287 Q1872.22 55.6027 1869.18 64.7983 Q1866.18 73.9938 1860.11 83.5134 L1853.63 83.5134 Q1859.01 74.2369 1861.65 65.0818 Q1864.32 55.8863 1864.32 46.5287 Q1864.32 37.1711 1861.65 28.0566 Q1859.01 18.942 1853.63 9.62495 Z" fill="#000000" fill-rule="evenodd" fill-opacity="1" /><path clip-path="url(#clip810)" d="M 0 0 M1201.6 1512.18 L1201.6 1518.96 Q1198.35 1515.94 1194.66 1514.44 Q1191 1512.95 1186.86 1512.95 Q1178.71 1512.95 1174.38 1517.95 Q1170.05 1522.91 1170.05 1532.33 Q1170.05 1541.72 1174.38 1546.72 Q1178.71 1551.68 1186.86 1551.68 Q1191 1551.68 1194.66 1550.19 Q1198.35 1548.69 1201.6 1545.67 L1201.6 1552.38 Q1198.22 1554.68 1194.43 1555.82 Q1190.68 1556.97 1186.48 1556.97 Q1175.69 1556.97 1169.48 1550.38 Q1163.27 1543.76 1163.27 1532.33 Q1163.27 1520.87 1169.48 1514.28 Q1175.69 1507.66 1186.48 1507.66 Q1190.74 1507.66 1194.5 1508.81 Q1198.28 1509.92 1201.6 1512.18 Z" fill="#000000" fill-rule="evenodd" fill-opacity="1" /><path clip-path="url(#clip810)" d="M 0 0 M1221.55 1524.5 Q1216.84 1524.5 1214.1 1528.19 Q1211.37 1531.85 1211.37 1538.25 Q1211.37 1544.65 1214.07 1548.34 Q1216.81 1552 1221.55 1552 Q1226.23 1552 1228.97 1548.31 Q1231.7 1544.62 1231.7 1538.25 Q1231.7 1531.92 1228.97 1528.23 Q1226.23 1524.5 1221.55 1524.5 M1221.55 1519.54 Q1229.19 1519.54 1233.55 1524.5 Q1237.91 1529.47 1237.91 1538.25 Q1237.91 1547 1233.55 1552 Q1229.19 1556.97 1221.55 1556.97 Q1213.88 1556.97 1209.52 1552 Q1205.19 1547 1205.19 1538.25 Q1205.19 1529.47 1209.52 1524.5 Q1213.88 1519.54 1221.55 1519.54 Z" fill="#000000" fill-rule="evenodd" fill-opacity="1" /><path clip-path="url(#clip810)" d="M 0 0 M1266.78 1521.45 L1266.78 1526.98 Q1264.3 1525.71 1261.62 1525.07 Q1258.95 1524.44 1256.09 1524.44 Q1251.73 1524.44 1249.53 1525.77 Q1247.36 1527.11 1247.36 1529.79 Q1247.36 1531.82 1248.92 1533 Q1250.48 1534.15 1255.19 1535.2 L1257.2 1535.64 Q1263.44 1536.98 1266.05 1539.43 Q1268.69 1541.85 1268.69 1546.21 Q1268.69 1551.17 1264.74 1554.07 Q1260.83 1556.97 1253.95 1556.97 Q1251.09 1556.97 1247.97 1556.39 Q1244.88 1555.85 1241.44 1554.74 L1241.44 1548.69 Q1244.69 1550.38 1247.84 1551.24 Q1250.99 1552.07 1254.08 1552.07 Q1258.22 1552.07 1260.45 1550.66 Q1262.67 1549.23 1262.67 1546.65 Q1262.67 1544.27 1261.05 1542.99 Q1259.46 1541.72 1254.02 1540.54 L1251.98 1540.07 Q1246.54 1538.92 1244.12 1536.56 Q1241.7 1534.18 1241.7 1530.04 Q1241.7 1525.01 1245.26 1522.27 Q1248.83 1519.54 1255.39 1519.54 Q1258.63 1519.54 1261.5 1520.01 Q1264.36 1520.49 1266.78 1521.45 Z" fill="#000000" fill-rule="evenodd" fill-opacity="1" /><path clip-path="url(#clip810)" d="M 0 0 M1280.63 1510.27 L1280.63 1520.4 L1292.69 1520.4 L1292.69 1524.95 L1280.63 1524.95 L1280.63 1544.3 Q1280.63 1548.66 1281.8 1549.9 Q1283.01 1551.14 1286.67 1551.14 L1292.69 1551.14 L1292.69 1556.04 L1286.67 1556.04 Q1279.89 1556.04 1277.32 1553.53 Q1274.74 1550.98 1274.74 1544.3 L1274.74 1524.95 L1270.44 1524.95 L1270.44 1520.4 L1274.74 1520.4 L1274.74 1510.27 L1280.63 1510.27 Z" fill="#000000" fill-rule="evenodd" fill-opacity="1" /><path clip-path="url(#clip810)" d="M 0 0 M1333.62 1506.58 Q1329.35 1513.9 1327.29 1521.06 Q1325.22 1528.23 1325.22 1535.58 Q1325.22 1542.93 1327.29 1550.16 Q1329.39 1557.35 1333.62 1564.64 L1328.53 1564.64 Q1323.75 1557.16 1321.37 1549.93 Q1319.01 1542.71 1319.01 1535.58 Q1319.01 1528.48 1321.37 1521.29 Q1323.72 1514.09 1328.53 1506.58 L1333.62 1506.58 Z" fill="#000000" fill-rule="evenodd" fill-opacity="1" /><path clip-path="url(#clip810)" d="M 0 0 M1355.65 1565.62 L1352.46 1565.62 L1352.43 1556.04 Q1349.09 1555.98 1345.75 1555.28 Q1342.4 1554.55 1339.03 1553.12 L1339.03 1547.39 Q1342.28 1549.42 1345.59 1550.47 Q1348.93 1551.49 1352.46 1551.52 L1352.46 1537.01 Q1345.43 1535.86 1342.21 1533.13 Q1339.03 1530.39 1339.03 1525.62 Q1339.03 1520.43 1342.5 1517.44 Q1345.97 1514.44 1352.46 1514 L1352.46 1506.52 L1355.65 1506.52 L1355.65 1513.9 Q1358.61 1514.03 1361.37 1514.54 Q1364.14 1515.02 1366.79 1515.88 L1366.79 1521.45 Q1364.14 1520.11 1361.34 1519.38 Q1358.57 1518.65 1355.65 1518.52 L1355.65 1532.11 Q1362.87 1533.22 1366.28 1536.09 Q1369.68 1538.95 1369.68 1543.92 Q1369.68 1549.3 1366.05 1552.42 Q1362.46 1555.5 1355.65 1555.98 L1355.65 1565.62 M1352.46 1531.54 L1352.46 1518.49 Q1348.77 1518.9 1346.83 1520.59 Q1344.89 1522.27 1344.89 1525.07 Q1344.89 1527.81 1346.67 1529.34 Q1348.48 1530.87 1352.46 1531.54 M1355.65 1537.65 L1355.65 1551.43 Q1359.69 1550.89 1361.72 1549.14 Q1363.79 1547.39 1363.79 1544.52 Q1363.79 1541.72 1361.82 1540.07 Q1359.88 1538.41 1355.65 1537.65 Z" fill="#000000" fill-rule="evenodd" fill-opacity="1" /><path clip-path="url(#clip810)" d="M 0 0 M1374.9 1506.58 L1379.99 1506.58 Q1384.77 1514.09 1387.12 1521.29 Q1389.51 1528.48 1389.51 1535.58 Q1389.51 1542.71 1387.12 1549.93 Q1384.77 1557.16 1379.99 1564.64 L1374.9 1564.64 Q1379.13 1557.35 1381.2 1550.16 Q1383.3 1542.93 1383.3 1535.58 Q1383.3 1528.23 1381.2 1521.06 Q1379.13 1513.9 1374.9 1506.58 Z" fill="#000000" fill-rule="evenodd" fill-opacity="1" /><path clip-path="url(#clip810)" d="M 0 0 M45.7677 967.512 L82.7206 967.512 L82.7206 959.746 Q82.7206 949.911 78.2646 945.359 Q73.8086 940.776 64.1964 940.776 Q54.6479 940.776 50.2237 945.359 Q45.7677 949.911 45.7677 959.746 L45.7677 967.512 M40.4842 973.941 L40.4842 960.732 Q40.4842 946.919 46.2451 940.458 Q51.9743 933.996 64.1964 933.996 Q76.4822 933.996 82.2432 940.489 Q88.0042 946.982 88.0042 960.732 L88.0042 973.941 L40.4842 973.941 Z" fill="#000000" fill-rule="evenodd" fill-opacity="1" /><path clip-path="url(#clip810)" d="M 0 0 M52.3562 927.854 L52.3562 921.997 L88.0042 921.997 L88.0042 927.854 L52.3562 927.854 M38.479 927.854 L38.479 921.997 L45.895 921.997 L45.895 927.854 L38.479 927.854 Z" fill="#000000" fill-rule="evenodd" fill-opacity="1" /><path clip-path="url(#clip810)" d="M 0 0 M53.4065 893.129 L58.9447 893.129 Q57.6716 895.611 57.035 898.285 Q56.3984 900.958 56.3984 903.823 Q56.3984 908.183 57.7352 910.38 Q59.072 912.544 61.7456 912.544 Q63.7826 912.544 64.9603 910.984 Q66.1061 909.425 67.1565 904.714 L67.6021 902.709 Q68.9389 896.471 71.3897 893.861 Q73.8086 891.219 78.1691 891.219 Q83.1344 891.219 86.0308 895.166 Q88.9272 899.081 88.9272 905.955 Q88.9272 908.82 88.3543 911.939 Q87.8132 915.027 86.6992 918.464 L80.6518 918.464 Q82.3387 915.218 83.198 912.067 Q84.0256 908.916 84.0256 905.828 Q84.0256 901.69 82.6251 899.462 Q81.1929 897.234 78.6147 897.234 Q76.2276 897.234 74.9545 898.858 Q73.6813 900.449 72.5037 905.892 L72.0262 907.929 Q70.8804 913.372 68.5251 915.79 Q66.138 918.209 62.0002 918.209 Q56.9713 918.209 54.2341 914.645 Q51.4968 911.08 51.4968 904.523 Q51.4968 901.277 51.9743 898.412 Q52.4517 895.548 53.4065 893.129 Z" fill="#000000" fill-rule="evenodd" fill-opacity="1" /><path clip-path="url(#clip810)" d="M 0 0 M42.2347 879.283 L52.3562 879.283 L52.3562 867.22 L56.9077 867.22 L56.9077 879.283 L76.2594 879.283 Q80.6199 879.283 81.8613 878.106 Q83.1026 876.896 83.1026 873.236 L83.1026 867.22 L88.0042 867.22 L88.0042 873.236 Q88.0042 880.015 85.4897 882.593 Q82.9434 885.171 76.2594 885.171 L56.9077 885.171 L56.9077 889.468 L52.3562 889.468 L52.3562 885.171 L42.2347 885.171 L42.2347 879.283 Z" fill="#000000" fill-rule="evenodd" fill-opacity="1" /><path clip-path="url(#clip810)" d="M 0 0 M70.0847 844.877 Q70.0847 851.974 71.7079 854.712 Q73.3312 857.449 77.2461 857.449 Q80.3653 857.449 82.2114 855.412 Q84.0256 853.343 84.0256 849.81 Q84.0256 844.94 80.5881 842.012 Q77.1188 839.052 71.3897 839.052 L70.0847 839.052 L70.0847 844.877 M67.6657 833.195 L88.0042 833.195 L88.0042 839.052 L82.5933 839.052 Q85.8398 841.057 87.3994 844.049 Q88.9272 847.041 88.9272 851.37 Q88.9272 856.844 85.8716 860.091 Q82.7843 863.305 77.6281 863.305 Q71.6125 863.305 68.5569 859.295 Q65.5014 855.253 65.5014 847.264 L65.5014 839.052 L64.9285 839.052 Q60.8862 839.052 58.6901 841.726 Q56.4621 844.367 56.4621 849.173 Q56.4621 852.229 57.1941 855.125 Q57.9262 858.022 59.3903 860.695 L53.9795 860.695 Q52.7381 857.481 52.1334 854.457 Q51.4968 851.433 51.4968 848.569 Q51.4968 840.834 55.5072 837.015 Q59.5176 833.195 67.6657 833.195 Z" fill="#000000" fill-rule="evenodd" fill-opacity="1" /><path clip-path="url(#clip810)" d="M 0 0 M66.4881 797.42 L88.0042 797.42 L88.0042 803.277 L66.679 803.277 Q61.6183 803.277 59.1038 805.25 Q56.5894 807.223 56.5894 811.17 Q56.5894 815.913 59.6131 818.65 Q62.6368 821.387 67.8567 821.387 L88.0042 821.387 L88.0042 827.275 L52.3562 827.275 L52.3562 821.387 L57.8944 821.387 Q54.6797 819.286 53.0883 816.454 Q51.4968 813.589 51.4968 809.865 Q51.4968 803.722 55.3163 800.571 Q59.1038 797.42 66.4881 797.42 Z" fill="#000000" fill-rule="evenodd" fill-opacity="1" /><path clip-path="url(#clip810)" d="M 0 0 M53.7248 765.623 L59.1993 765.623 Q57.8307 768.106 57.1623 770.621 Q56.4621 773.103 56.4621 775.649 Q56.4621 781.347 60.0905 784.498 Q63.6872 787.649 70.212 787.649 Q76.7369 787.649 80.3653 784.498 Q83.9619 781.347 83.9619 775.649 Q83.9619 773.103 83.2935 770.621 Q82.5933 768.106 81.2247 765.623 L86.6355 765.623 Q87.7814 768.074 88.3543 770.716 Q88.9272 773.326 88.9272 776.286 Q88.9272 784.339 83.8664 789.081 Q78.8057 793.824 70.212 793.824 Q61.491 793.824 56.4939 789.049 Q51.4968 784.243 51.4968 775.904 Q51.4968 773.199 52.0697 770.621 Q52.6108 768.042 53.7248 765.623 Z" fill="#000000" fill-rule="evenodd" fill-opacity="1" /><path clip-path="url(#clip810)" d="M 0 0 M68.7161 728.989 L71.5806 728.989 L71.5806 755.916 Q77.6281 755.534 80.8109 752.287 Q83.9619 749.009 83.9619 743.184 Q83.9619 739.811 83.1344 736.66 Q82.3069 733.477 80.6518 730.357 L86.1899 730.357 Q87.5267 733.508 88.227 736.819 Q88.9272 740.129 88.9272 743.534 Q88.9272 752.065 83.9619 757.062 Q78.9967 762.027 70.5303 762.027 Q61.7774 762.027 56.6531 757.316 Q51.4968 752.574 51.4968 744.553 Q51.4968 737.36 56.1438 733.19 Q60.7589 728.989 68.7161 728.989 M66.9973 734.845 Q62.1912 734.909 59.3266 737.551 Q56.4621 740.161 56.4621 744.489 Q56.4621 749.391 59.2312 752.351 Q62.0002 755.279 67.0292 755.725 L66.9973 734.845 Z" fill="#000000" fill-rule="evenodd" fill-opacity="1" /><path clip-path="url(#clip810)" d="M 0 0 M38.5426 688.057 Q45.8632 692.322 53.0246 694.391 Q60.186 696.46 67.5384 696.46 Q74.8908 696.46 82.1159 694.391 Q89.3091 692.291 96.5979 688.057 L96.5979 693.15 Q89.1182 697.924 81.8931 700.311 Q74.668 702.667 67.5384 702.667 Q60.4406 702.667 53.2474 700.311 Q46.0542 697.956 38.5426 693.15 L38.5426 688.057 Z" fill="#000000" fill-rule="evenodd" fill-opacity="1" /><path clip-path="url(#clip810)" d="M 0 0 M38.479 682.137 L38.479 676.249 L67.7294 676.249 L52.3562 658.775 L52.3562 651.295 L69.0344 670.202 L88.0042 650.5 L88.0042 658.139 L70.5939 676.249 L88.0042 676.249 L88.0042 682.137 L38.479 682.137 Z" fill="#000000" fill-rule="evenodd" fill-opacity="1" /><path clip-path="url(#clip810)" d="M 0 0 M59.1993 616.602 Q55.2526 614.406 53.3747 611.351 Q51.4968 608.295 51.4968 604.157 Q51.4968 598.587 55.4117 595.564 Q59.2948 592.54 66.4881 592.54 L88.0042 592.54 L88.0042 598.428 L66.679 598.428 Q61.5546 598.428 59.072 600.242 Q56.5894 602.057 56.5894 605.781 Q56.5894 610.332 59.6131 612.974 Q62.6368 615.616 67.8567 615.616 L88.0042 615.616 L88.0042 621.504 L66.679 621.504 Q61.5228 621.504 59.072 623.318 Q56.5894 625.132 56.5894 628.92 Q56.5894 633.408 59.6449 636.05 Q62.6686 638.691 67.8567 638.691 L88.0042 638.691 L88.0042 644.58 L52.3562 644.58 L52.3562 638.691 L57.8944 638.691 Q54.616 636.686 53.0564 633.885 Q51.4968 631.084 51.4968 627.233 Q51.4968 623.35 53.4702 620.645 Q55.4436 617.907 59.1993 616.602 Z" fill="#000000" fill-rule="evenodd" fill-opacity="1" /><path clip-path="url(#clip810)" d="M 0 0 M38.5426 587.32 L38.5426 582.227 Q46.0542 577.453 53.2474 575.098 Q60.4406 572.711 67.5384 572.711 Q74.668 572.711 81.8931 575.098 Q89.1182 577.453 96.5979 582.227 L96.5979 587.32 Q89.3091 583.087 82.1159 581.018 Q74.8908 578.917 67.5384 578.917 Q60.186 578.917 53.0246 581.018 Q45.8632 583.087 38.5426 587.32 Z" fill="#000000" fill-rule="evenodd" fill-opacity="1" /><polyline clip-path="url(#clip812)" style="stroke:#009af9; stroke-width:12; stroke-opacity:1; fill:none" points="
  260.955,160.256 260.955,160.256 502.552,1134.67 784.114,1298.79 1169.22,1344.51 2291.83,1386.4 
  "/>
<circle clip-path="url(#clip812)" cx="260.955" cy="160.256" r="14" fill="#e26f46" fill-rule="evenodd" fill-opacity="1" stroke="#000000" stroke-opacity="1" stroke-width="3.2"/>
<circle clip-path="url(#clip812)" cx="260.955" cy="160.256" r="14" fill="#e26f46" fill-rule="evenodd" fill-opacity="1" stroke="#000000" stroke-opacity="1" stroke-width="3.2"/>
<circle clip-path="url(#clip812)" cx="502.552" cy="1134.67" r="14" fill="#e26f46" fill-rule="evenodd" fill-opacity="1" stroke="#000000" stroke-opacity="1" stroke-width="3.2"/>
<circle clip-path="url(#clip812)" cx="502.552" cy="1134.67" r="14" fill="#e26f46" fill-rule="evenodd" fill-opacity="1" stroke="#000000" stroke-opacity="1" stroke-width="3.2"/>
<circle clip-path="url(#clip812)" cx="784.114" cy="1298.79" r="14" fill="#e26f46" fill-rule="evenodd" fill-opacity="1" stroke="#000000" stroke-opacity="1" stroke-width="3.2"/>
<circle clip-path="url(#clip812)" cx="1169.22" cy="1344.51" r="14" fill="#e26f46" fill-rule="evenodd" fill-opacity="1" stroke="#000000" stroke-opacity="1" stroke-width="3.2"/>
<circle clip-path="url(#clip812)" cx="2291.83" cy="1386.4" r="14" fill="#e26f46" fill-rule="evenodd" fill-opacity="1" stroke="#000000" stroke-opacity="1" stroke-width="3.2"/>
<circle clip-path="url(#clip812)" cx="2291.83" cy="1386.4" r="14" fill="#e26f46" fill-rule="evenodd" fill-opacity="1" stroke="#000000" stroke-opacity="1" stroke-width="3.2"/>
<circle clip-path="url(#clip812)" cx="2291.83" cy="1386.4" r="14" fill="#e26f46" fill-rule="evenodd" fill-opacity="1" stroke="#000000" stroke-opacity="1" stroke-width="3.2"/>
</svg>
